<svg width="110" height="32" viewBox="0 0 110 32" fill="none" xmlns="http://www.w3.org/2000/svg">
<path fill-rule="evenodd" clip-rule="evenodd" d="M90.0308 0.268555H85.6309V24.7405H90.0308V0.268555ZM19.0731 13.2812L21.7654 12.256C21.8985 12.2072 22.0271 12.3536 21.9473 12.4779L13.9635 25.6858C13.8836 25.8145 13.7417 25.8944 13.5909 25.8944H8.36592C8.21511 25.8944 8.07318 25.81 7.99334 25.6813L0.0228227 12.4779C-0.0525801 12.3536 0.0716127 12.2027 0.209112 12.256L2.88813 13.2856C3.00345 13.33 3.1099 13.2146 3.06555 13.1037L0.0627418 5.81179C0.0183872 5.70084 0.124838 5.58988 0.235725 5.62983L5.93972 7.62699C6.05061 7.6625 6.13932 7.74682 6.18367 7.85777L10.0647 17.6217C10.1135 17.746 9.99373 17.8658 9.86953 17.8214L7.45221 16.9338C7.31471 16.885 7.19495 17.0314 7.26592 17.1557L10.8143 23.1871C10.8897 23.3203 11.0804 23.3203 11.1558 23.1871L14.7042 17.1557C14.7751 17.0314 14.651 16.885 14.5179 16.9338L12.1006 17.8214C11.9764 17.8702 11.8566 17.746 11.9054 17.6217L15.7776 7.85334C15.8219 7.74682 15.9106 7.6625 16.0215 7.62255L21.7255 5.62539C21.8364 5.58545 21.9428 5.6964 21.8985 5.80735L18.8957 13.0992C18.8513 13.2102 18.9622 13.3256 19.0731 13.2812ZM58.3484 8.05755C59.3463 8.48361 60.2246 9.08276 60.9742 9.85943C61.7238 10.6361 62.3181 11.5681 62.7661 12.6555C63.2052 13.7428 63.4225 14.9411 63.4225 16.2415C63.4225 16.4412 63.4137 16.6365 63.3871 16.8229C63.3773 16.8929 63.3681 16.9618 63.3591 17.0294C63.3436 17.1461 63.3285 17.2592 63.3116 17.3688C63.3029 17.4346 63.2946 17.4995 63.2865 17.5631C63.2699 17.6924 63.2541 17.8164 63.2362 17.9324H51.225C51.4246 18.7845 51.8504 19.4946 52.5024 20.0716C53.1544 20.6485 54.0415 20.937 55.1681 20.937C55.7448 20.937 56.2238 20.8749 56.6141 20.7506C57 20.6219 57.3327 20.4755 57.6077 20.2979C57.9048 20.0982 58.1576 19.8719 58.3572 19.6233H62.8592C62.633 20.2757 62.2871 20.9237 61.8258 21.5761C61.36 22.2241 60.7967 22.8055 60.1359 23.3203C59.4705 23.8307 58.7209 24.2523 57.8826 24.5763C57.0399 24.9003 56.1351 25.0645 55.1593 25.0645C53.9839 25.0645 52.875 24.8293 51.8371 24.3677C50.7992 23.9061 49.8855 23.2759 49.096 22.4726C48.3065 21.6738 47.6811 20.7417 47.2198 19.6766C46.7541 18.6159 46.5234 17.4664 46.5234 16.2415C46.5234 15.0166 46.7585 13.8715 47.2198 12.8064C47.6811 11.7456 48.3065 10.8136 49.096 10.0103C49.8855 9.21146 50.7992 8.57681 51.8371 8.11524C52.875 7.64924 53.9839 7.41846 55.1593 7.41846C56.2859 7.41846 57.346 7.63149 58.3484 8.05755ZM52.396 12.5223C51.6819 13.1747 51.225 13.978 51.0254 14.9278H59.2842C59.0847 13.9736 58.6278 13.1747 57.9137 12.5223C57.1996 11.8699 56.2814 11.5459 55.1548 11.5459C54.0282 11.5459 53.1101 11.8699 52.396 12.5223ZM37.4802 21.523H36.8503L32.8318 7.40082H28.1524L33.6745 24.7406H40.6604L46.1781 7.40082H41.4987L37.4802 21.523ZM71.016 9.67302C71.5749 8.4836 72.9721 7.12109 76.0813 7.12109C80.1309 7.12109 82.8232 10.0902 82.8188 14.3908V24.7405H78.4188V14.7414C78.4188 12.1184 77.0926 10.8269 74.7152 10.8269C72.0229 10.8269 70.4527 12.7132 70.4527 15.9308V24.7405H66.0527V7.4007H70.3862V9.67302H71.016ZM105.6 16.2106V7.40088H110V27.8163C110 30.1907 108.466 31.7308 106.159 31.7308H95.257V27.8873H104.691C105.321 27.8873 105.671 27.5412 105.671 26.8399V22.4684H105.042C104.483 23.6578 103.086 25.0203 99.9763 25.0203C95.9267 25.0203 93.2344 22.0512 93.2344 17.7506V7.40088H97.6344V17.4C97.6344 20.0229 98.9606 21.3144 101.338 21.3144C104.03 21.3144 105.6 19.4282 105.6 16.2106Z" fill="url(#paint0_linear_309_5460)"/>
<defs>
<linearGradient id="paint0_linear_309_5460" x1="44.3948" y1="0.268554" x2="87.8488" y2="38.4206" gradientUnits="userSpaceOnUse">
<stop stop-color="#7735E8"/>
<stop offset="1" stop-color="#C62CF1"/>
</linearGradient>
</defs>
</svg>
